<svg xmlns="http://www.w3.org/2000/svg" xmlns:xlink="http://www.w3.org/1999/xlink" id="Layer_1" data-name="Layer 1" viewBox="0 0 20 20"><defs><style>.cls-1{fill:none;}.cls-2{clip-path:url(#clip-path);}.cls-3{clip-path:url(#clip-path-2);}.cls-4{clip-path:url(#clip-path-3);}.cls-5{clip-path:url(#clip-path-4);}.cls-6{fill:#231f20;}</style><clipPath id="clip-path"><path class="cls-1" d="M411.13,152.56a1.31,1.31,0,0,1-1.29,1.32H395.25a1.3,1.3,0,0,1-1.28-1.32V142.33a1.3,1.3,0,0,1,1.28-1.32h14.59a1.3,1.3,0,0,1,1.28,1.32v10.23Zm-1.29-12.66H395.25a2.4,2.4,0,0,0-2.36,2.42v10.24a2.39,2.39,0,0,0,2.36,2.42h14.59a2.39,2.39,0,0,0,2.36-2.42V142.33A2.39,2.39,0,0,0,409.84,139.9Z"/></clipPath><clipPath id="clip-path-2"><path class="cls-1" d="M405.07,147.32l4.72-4.35a.57.57,0,0,0,0-.79.54.54,0,0,0-.76,0l-6.51,6L401.29,147h0l-.09-.08L396,142.14a.52.52,0,0,0-.76,0,.57.57,0,0,0,0,.79l4.78,4.38-4.76,4.57a.57.57,0,0,0,0,.79.54.54,0,0,0,.39.17.52.52,0,0,0,.37-.14l4.83-4.64,1.31,1.2a.56.56,0,0,0,.36.14.54.54,0,0,0,.36-.14l1.35-1.24,4.8,4.68a.53.53,0,0,0,.37.15.52.52,0,0,0,.39-.17.55.55,0,0,0,0-.78Z"/></clipPath><clipPath id="clip-path-3"><path class="cls-1" d="M463.19,144.61a1.31,1.31,0,0,1-1.29,1.32H447.31a1.3,1.3,0,0,1-1.28-1.32V134.38a1.3,1.3,0,0,1,1.28-1.32H461.9a1.3,1.3,0,0,1,1.28,1.32v10.23ZM461.9,132H447.31a2.4,2.4,0,0,0-2.36,2.42v10.24a2.39,2.39,0,0,0,2.36,2.42H461.9a2.39,2.39,0,0,0,2.36-2.42V134.38A2.39,2.39,0,0,0,461.9,132Z"/></clipPath><clipPath id="clip-path-4"><path class="cls-1" d="M457.13,139.37l4.72-4.35a.57.57,0,0,0,0-.79.54.54,0,0,0-.76,0l-6.51,6L453.35,139h0l-.09-.08-5.17-4.75a.52.52,0,0,0-.76,0,.57.57,0,0,0,0,.79l4.78,4.38L447.38,144a.56.56,0,0,0,0,.78.56.56,0,0,0,.39.17.52.52,0,0,0,.37-.14l4.83-4.64,1.31,1.2a.56.56,0,0,0,.36.14.54.54,0,0,0,.36-.14l1.35-1.24,4.8,4.68a.53.53,0,0,0,.37.15.49.49,0,0,0,.39-.17.55.55,0,0,0,0-.78Z"/></clipPath></defs><title>Plantsome_icon_verzorgingsapp</title><path class="cls-1" d="M13.44,3.82a3.73,3.73,0,0,0-3,1.56L10,6l-.41-.57A3.73,3.73,0,0,0,2.82,7.56a3.69,3.69,0,0,0,.56,2C4.92,12,8.89,15.1,10,15.94c1.11-.84,5.08-3.93,6.62-6.42a3.69,3.69,0,0,0,.56-2A3.75,3.75,0,0,0,13.44,3.82Z"/><path class="cls-6" d="M13.44,2.82A4.76,4.76,0,0,0,10,4.31a4.73,4.73,0,0,0-7.47,5.74c1.89,3,7,6.76,7.18,6.92l.29.21.29-.21c.22-.16,5.29-3.87,7.18-6.92a4.74,4.74,0,0,0-4-7.23Zm3.18,6.7C15.08,12,11.11,15.1,10,15.94,8.89,15.1,4.92,12,3.38,9.52a3.69,3.69,0,0,1-.56-2A3.73,3.73,0,0,1,9.59,5.38L10,6l.41-.57a3.73,3.73,0,0,1,6.77,2.18A3.69,3.69,0,0,1,16.62,9.52Z"/></svg>
